<svg width="36" height="36" viewBox="0 0 36 36" fill="none" xmlns="http://www.w3.org/2000/svg">
<path opacity="0.49" d="M18 36C8.1 36 0 27.9 0 18C0 8.1 8.1 0 18 0C27.9 0 36 8.1 36 18C36 27.9 27.9 36 18 36Z" fill="#251446"/>
<path d="M33 18C33 26.3 26.3 33 18 33C9.7 33 3 26.3 3 18C3 9.7 9.7 3 18 3C26.3 3 33 9.7 33 18Z" fill="white"/>
<path d="M20.4999 25.5L13.3999 18.3V17.7L20.4999 10.5" stroke="#251446" stroke-width="2" stroke-miterlimit="10" stroke-linecap="round" stroke-linejoin="round"/>
</svg>
