<svg width="22" height="17" viewBox="0 0 22 17" fill="none" xmlns="http://www.w3.org/2000/svg">
<g clip-path="url(#clip0_58_973)">
<path d="M0 3.30004C0.3 2.70004 0.5 2.60004 1.4 2.70004V3.00004C1.4 6.10004 1.4 9.30004 1.4 12.4C1.4 12.9 1.5 13.4 1.8 13.8C2.2 14.3 2.7 14.5 3.3 14.6C4 14.7 4.8 14.7 5.5 14.8C6.7 15 7.9 15.5 8.9 16.3C9 16.4 9.1 16.5 9.3 16.6C8.8 16.5 8.4 16.4 8 16.4C6.8 16.2 5.5 16.2 4.3 16.3C3.2 16.4 2.2 16.6 1.1 16.8C0.6 16.9 0.3 16.7 0.1 16.2V3.30004H0Z" fill="white"/>
<path d="M10.4001 16C10.3001 16 10.3001 15.9 10.3001 15.9C9.0001 14.6 7.3001 13.9 5.5001 13.6C4.8001 13.5 4.1001 13.5 3.5001 13.4C2.9001 13.4 2.6001 13.1 2.6001 12.5C2.6001 8.6 2.6001 4.8 2.6001 0.9C2.6001 0.3 2.9001 0 3.5001 0C4.6001 0 5.7001 0.2 6.7001 0.5C8.2001 1 9.4001 1.8 10.2001 3.1C10.3001 3.3 10.4001 3.5 10.4001 3.7C10.4001 7.7 10.4001 11.8 10.4001 15.8C10.4001 15.9 10.4001 15.9 10.4001 16Z" fill="white"/>
<path d="M11.6001 15.9V15.6C11.6001 11.7 11.6001 7.9 11.6001 4C11.6001 3.4 11.8001 3 12.1001 2.6C13.2001 1.3 14.6001 0.5 16.3001 0.2C17.0001 0.1 17.8001 0.1 18.6001 0C19.1001 0 19.5001 0.3 19.5001 0.9C19.5001 3.1 19.5001 5.3 19.5001 7.5C19.5001 9.2 19.5001 10.8 19.5001 12.5C19.5001 13.1 19.2001 13.4 18.6001 13.5C17.2001 13.5 15.9001 13.7 14.6001 14.2C13.6001 14.6 12.7001 15.1 11.9001 15.9C11.7001 15.8 11.7001 15.9 11.6001 15.9C11.7001 15.9 11.7001 15.9 11.6001 15.9Z" fill="white"/>
<path d="M12.7 16.6C13.1 16.3 13.5 16 13.9 15.8C14.9 15.2 15.9 14.9 17 14.8C17.6 14.7 18.1 14.7 18.7 14.7C19.6 14.6 20.3 14.1 20.6 13.2C20.7 13 20.7 12.8 20.7 12.5C20.7 9.39995 20.7 6.19995 20.7 3.09995V2.69995C21 2.69995 21.2 2.69995 21.4 2.69995C21.7 2.69995 22 2.99995 22 3.39995V3.49995C22 7.59995 22 11.8 22 15.9C22 16.5 21.6 16.8 21 16.7C20.9 16.7 20.8 16.7 20.7 16.6C18.8 16.2 16.9 16 15 16.2C14.3 16.3 13.5 16.5 12.7 16.6Z" fill="white"/>
</g>
<defs>
<clipPath id="clip0_58_973">
<rect width="22" height="16.8" fill="white"/>
</clipPath>
</defs>
</svg>
