<svg id="Layer_2" enable-background="new 0 0 32 32" height="512" viewBox="0 0 32 32" width="512"
    xmlns="http://www.w3.org/2000/svg">
    <g>
        <path
            d="m3.39502 8.13934c.00006-.00018-.4527-1.27716-.4527-1.27716-.18451-.52142-.75628-.79291-1.27624-.60833-.52045.18451-.79291.7558-.60834 1.27625l1.22302 3.44983c.1601.44965.63568.71906 1.1015.6532 0 .00006 3.79846-.61218 3.79846-.61218.54535-.08789.91589-.6015.828-1.14636-.08782-.54488-.60345-.91884-1.14635-.82808l-1.8675.30078c2.31226-3.85901 6.48474-6.26794 11.08197-6.26794 7.12433 0 12.92066 5.79632 12.92066 12.92065 0 .55267.4472.99988.99988.99988s.99993-.44721.99993-.99988c-.1267-15.00305-19.67486-20.50073-27.60229-7.86066z" />
        <path
            d="m29.71619 21.02002c-.15845-.44067-.63696-.72394-1.1015-.65326l-3.79749.61224c-.54486.08789-.91589.6015-.828 1.14636.08783.54486.59857.91693 1.14636.82806l1.86603-.30078c-2.31128 3.85901-6.48376 6.26801-11.08099 6.26801-7.12434 0-12.92066-5.79632-12.92066-12.92065 0-.55273-.44769-.99994-.99988-.99994s-.99994.44721-.99994.99994c.12622 15.00299 19.6756 20.50067 27.60217 7.86066.27972.65143.43121 1.99127 1.39508 1.94299.6731.01056 1.18225-.69867.94232-1.3338z" />
        <path
            d="m16 8.51996c-2.34003 0-4.25 1.91003-4.25 4.25v1h-1.31c-.54999 0-1 .45001-1 1v7.71002c0 .54999.45001 1 1 1h11.12c.54999 0 1-.45001 1-1v-7.71002c0-.54999-.45001-1-1-1h-1.31v-1c0-2.33997-1.90997-4.25-4.25-4.25zm2.25 5.25h-4.5v-1c0-1.23999 1.01001-2.25 2.25-2.25s2.25 1.01001 2.25 2.25z" />
    </g>
</svg>