<svg width="20" height="13" viewBox="0 0 20 13" fill="none" xmlns="http://www.w3.org/2000/svg">
<g clip-path="url(#clip0_6_2)">
<path d="M6.96234 13.059H6.09205H5.98326C5.00418 12.9502 4.0251 12.7327 3.15481 12.1887C1.41423 11.1009 0.435146 9.68663 0.108787 7.72847C0.108787 7.40211 0 7.18454 0 6.96697V6.09667V5.98789C0 5.66153 0.108787 5.44395 0.108787 5.11759C0.435146 3.59458 1.30544 2.28914 2.50209 1.31006C4.13389 0.113407 5.87448 -0.321739 7.83264 0.113407C9.35565 0.439767 10.6611 1.31006 11.6402 2.50672C12.728 3.92094 13.1632 5.44395 12.9456 7.07575C12.8368 8.59877 12.4017 9.79542 11.4226 10.8833C10.4435 12.0799 9.13807 12.7327 7.61506 13.059C7.39749 12.9502 7.17992 13.059 6.96234 13.059ZM6.5272 0.9837C3.48117 0.9837 0.979079 3.4858 0.979079 6.53182C0.979079 9.57785 3.48117 12.0799 6.5272 12.0799C9.57322 12.0799 12.0753 9.57785 12.0753 6.53182C12.0753 3.4858 9.57322 0.9837 6.5272 0.9837Z" fill="#333333"/>
<path d="M5.98326 5.00876C5.98326 4.46483 5.98326 4.02968 5.98326 3.48575C5.98326 3.0506 6.30962 2.83303 6.63598 2.94182C6.85355 3.0506 6.96234 3.15939 6.96234 3.48575C6.96234 4.35604 6.96234 5.11755 6.96234 5.98784C6.96234 6.09663 6.96234 6.20541 7.17991 6.3142C7.72385 6.74935 8.26778 7.07571 8.81171 7.51085C9.02929 7.61964 9.13807 7.83721 9.02929 8.05479C8.9205 8.59872 8.59414 8.70751 8.26778 8.48993C8.05021 8.38115 7.83263 8.27236 7.72385 8.05479C7.2887 7.72843 6.85355 7.40207 6.30962 6.96692C6.09205 6.85813 5.98326 6.74935 5.98326 6.42299C5.98326 5.98784 5.98326 5.55269 5.98326 5.00876Z" fill="#333333"/>
</g>
<defs>
<clipPath id="clip0_6_2">
<rect width="20" height="13" fill="white"/>
</clipPath>
</defs>
</svg>
