<svg width="22" height="23" viewBox="0 0 22 23" fill="none" xmlns="http://www.w3.org/2000/svg">
    <g clip-path="url(#clip0_5_635)">
        <path
            d="M0 11.1973C0 8.09727 0 4.99727 0 1.99727C0 0.797266 0.6 0.197266 1.7 0.197266C2.2 0.197266 2.6 0.197266 3.1 0.197266C4 0.197266 4.7 0.897266 4.7 1.79727C4.7 8.09727 4.7 14.2973 4.7 20.5973C4.7 21.4973 4 22.1973 3.1 22.1973C2.6 22.1973 2.1 22.1973 1.6 22.1973C0.6 22.1973 0 21.4973 0 20.5973C0 17.3973 0 14.2973 0 11.1973Z"
            fill="white" />
        <path
            d="M11 11.1973C11 14.2973 11 17.2973 11 20.3973C11 21.4973 10.4 22.0973 9.30005 22.0973C8.90005 22.0973 8.40005 22.0973 8.00005 22.0973C7.00005 22.0973 6.30005 21.3973 6.30005 20.3973C6.30005 14.5973 6.30005 8.69727 6.30005 2.89727C6.30005 2.49727 6.30005 2.09727 6.30005 1.69727C6.30005 0.897266 7.00005 0.197266 7.80005 0.197266C8.30005 0.197266 8.80005 0.197266 9.30005 0.197266C10.3 0.197266 10.9 0.897266 10.9 1.79727C11 4.89727 11 8.09727 11 11.1973Z"
            fill="white" />
        <path
            d="M22 19.9972C22 20.6972 21.6 21.2972 20.9 21.4972C20.3 21.6972 19.8 21.7972 19.2 21.9972C18.3 22.1972 17.6 21.6972 17.3 20.7972C16.7 18.5972 16.1 16.3972 15.5 14.1972C14.5 10.3972 13.5 6.59717 12.5 2.89717C12.2 1.89717 12.7 1.09717 13.7 0.797168C14.1 0.697168 14.6 0.597168 15 0.397168C16 0.197168 16.8 0.597168 17 1.59717C17.5 3.49717 18 5.29717 18.5 7.19717C19.6 11.2972 20.7 15.3972 21.8 19.5972C21.9 19.6972 22 19.8972 22 19.9972Z"
            fill="white" />
    </g>
    <defs>
        <clipPath id="clip0_5_635">
            <rect width="22" height="22" fill="white" transform="translate(0 0.197266)" />
        </clipPath>
    </defs>
</svg>