<svg width="23" height="23" viewBox="0 0 23 23" fill="none" xmlns="http://www.w3.org/2000/svg">
<g clip-path="url(#clip0_113_105)">
<path d="M13.8 3.7L1.5 16C1.4 16.1 1.4 16.1 1.4 16.2L0 21.7C0 21.9 0 22 0.1 22.2C0.2 22.3 0.3 22.3 0.4 22.3H0.5L6.1 21C6.2 21 6.3 20.9 6.3 20.9L18.6 8.5L13.8 3.7Z" fill="white"/>
<path d="M21.6 2.1L20.2 0.700001C19.3 -0.199998 17.7 -0.199998 16.8 0.700001L15.1 2.4L20 7.2L21.7 5.5C22.2 5 22.4 4.4 22.4 3.8C22.4 3.1 22.1 2.5 21.6 2.1Z" fill="white"/>
</g>
<defs>
<clipPath id="clip0_113_105">
<rect width="22.4" height="22.3" fill="white"/>
</clipPath>
</defs>
</svg>
