<svg id="Capa_1" enable-background="new 0 0 512 512" height="512" viewBox="0 0 512 512" width="512" xmlns="http://www.w3.org/2000/svg"><path d="m505.904 182.929-54.904-40.503v-67.426c0-8.284-6.716-15-15-15h-95l-76-57c-5.333-4-12.667-4-18 0l-76 57h-95c-8.284 0-15 6.716-15 15v67.426l-54.905 40.503c-3.833 2.828-6.095 7.308-6.095 12.071v302c0 8.284 6.716 15 15 15h482c8.284 0 15-6.716 15-15v-302c0-4.763-2.262-9.243-6.096-12.071zm-23.904 19.645v43.138l-31 15.436v-81.443zm-226-168.824 35 26.25h-70zm165 56.25v186.086l-165 82.158-165-82.158v-186.086zm-360 89.706v81.442l-31-15.436v-43.138zm-31 302.294v-202.774l219.314 109.202c4.21 2.096 9.161 2.097 13.372 0l219.314-109.203v202.775z"/><path d="m166 180h180c8.284 0 15-6.716 15-15s-6.716-15-15-15h-180c-8.284 0-15 6.716-15 15s6.716 15 15 15z"/><path d="m166 240h90c8.284 0 15-6.716 15-15s-6.716-15-15-15h-90c-8.284 0-15 6.716-15 15s6.716 15 15 15z"/></svg>