<svg width="22" height="22" viewBox="0 0 22 22" fill="none" xmlns="http://www.w3.org/2000/svg">
<g clip-path="url(#clip0_58_979)">
<path d="M6.2999 16.8999C5.9999 16.9999 5.6999 16.8999 5.5999 16.5999L-9.76548e-05 4.2999C-0.100098 3.9999 -9.76622e-05 3.6999 0.299902 3.5999L8.2999 -9.76548e-05C8.4999 -0.100098 8.8999 -9.76622e-05 8.9999 0.299902L14.4999 12.5999C14.5999 12.8999 14.4999 13.1999 14.1999 13.2999L6.2999 16.8999Z" fill="white"/>
<path d="M21.2 6.6001L17.1 4.6001L16.9 16.4001C16.9 17.2001 16.2 17.9001 15.4 17.9001L6.7 17.8001C6.5 17.8001 6.2 17.7001 6 17.6001C6 17.6001 6.1 17.7001 6.2 17.7001L14 21.5001C14.7 21.9001 15.6 21.6001 16 20.8001L21.9 8.7001C22.2 7.9001 21.9 7.0001 21.2 6.6001Z" fill="white"/>
<path d="M15.6 2.29995L10.9 2.19995L15.4 12.2C15.7 13 15.4 13.8 14.6 14.2L8.80005 16.8L15.3 16.9C15.4 16.9 15.5 16.9 15.5 16.9C15.7 16.8 15.8 16.6 15.8 16.4L16 2.89995C16.1 2.59995 15.9 2.29995 15.6 2.29995Z" fill="white"/>
</g>
<defs>
<clipPath id="clip0_58_979">
<rect width="22" height="21.6" fill="white"/>
</clipPath>
</defs>
</svg>
