<svg width="512" height="365" viewBox="0 0 512 365" fill="none" xmlns="http://www.w3.org/2000/svg">
<g clip-path="url(#clip0_116_7)">
<path d="M436.193 101.626C430.686 96.891 425.153 92.368 419.604 88.036L354.903 152.737C358.845 163.764 361 175.635 361 188C361 245.897 313.897 293 256 293C243.635 293 231.764 290.845 220.737 286.902L172.179 335.46C200.535 347.092 228.66 353 256 353C288.657 353 322.432 344.604 356.384 328.045C383.046 315.04 409.898 296.982 436.193 274.374C480.648 236.148 508.034 198.35 509.177 196.759C512.942 191.527 512.942 184.474 509.177 179.241C508.033 177.65 480.648 139.852 436.193 101.626V101.626Z" fill="black"/>
<path d="M256 263C297.355 263 331 229.355 331 188C331 184.402 330.73 180.866 330.237 177.402L245.402 262.237C248.867 262.73 252.402 263 256 263V263Z" fill="black"/>
<path d="M416.607 28.394C410.75 22.537 401.252 22.537 395.394 28.394L368.546 54.242C364.49 52.034 360.435 49.931 356.384 47.956C322.432 31.396 288.657 23 256 23C223.343 23 189.568 31.396 155.616 47.955C128.954 60.96 102.102 79.018 75.807 101.626C31.353 139.852 3.96702 177.65 2.82302 179.241C-0.941983 184.473 -0.941983 191.526 2.82302 196.759C3.96702 198.35 31.352 236.149 75.807 274.374C89.43 286.087 103.203 296.566 117.021 305.765L104.394 328.394C98.536 334.251 98.536 343.749 104.394 349.607C107.323 352.535 111.161 354 115 354C118.839 354 122.678 352.535 125.606 349.606L416.606 49.606C422.465 43.749 422.465 34.251 416.607 28.394ZM151 188C151 130.103 198.103 83 256 83C279.551 83 301.315 90.794 318.85 103.938L297.33 125.458C285.471 117.594 271.265 113 256 113C214.645 113 181 146.645 181 188C181 203.264 185.594 217.47 193.458 229.33L171.938 250.85C158.794 233.315 151 211.551 151 188Z" fill="black"/>
</g>
<defs>
<clipPath id="clip0_116_7">
<rect width="512" height="365" fill="white"/>
</clipPath>
</defs>
</svg>
