<svg width="20" height="19" viewBox="0 0 20 19" fill="none" xmlns="http://www.w3.org/2000/svg">
<g clip-path="url(#clip0_76_2)">
<path d="M19.7 9.29995C20.1 8.89995 20 8.29995 19.6 7.99995L10.6 0.299951C10.2 -4.88311e-05 9.60002 -4.88311e-05 9.20002 0.299951L0.200024 8.39995C-0.199976 8.79995 -0.199976 9.39995 0.200024 9.69995L0.400024 9.89995C0.800024 10.3 1.40002 10.3 1.70002 9.99995L2.40002 9.39995V18C2.40002 18.5 2.80002 19 3.40002 19H7.40002C7.40002 19 8.40002 18.2999 8.30002 17.7999V12.2H13.1V17.7999C12.7 18.2999 13.6 19 13.6 19H17C17.5 19 18 18.6 18 18V9.59995C18 9.59995 18.2 9.79995 18.4 9.99995C18.6 10.2 19.1 9.99995 19.5 9.59995L19.7 9.29995Z" fill="#494949"/>
</g>
<defs>
<clipPath id="clip0_76_2">
<rect width="20" height="19" fill="white"/>
</clipPath>
</defs>
</svg>
