<svg width="28" height="13" viewBox="0 0 28 13" fill="none" xmlns="http://www.w3.org/2000/svg">
<path d="M15.6 5.275C15.2 5.375 14.9 5.575 14.6 5.675C12.7 6.475 10.8 7.175 9 7.975C8.6 8.075 8.3 8.075 7.9 7.975C5.5 6.975 3.1 5.975 0.8 5.075C0.3 4.875 0 4.475 0 3.975C0 3.475 0.3 3.175 0.7 2.975C3.1 1.975 5.6 1.075 8 0.075C8.3 -0.025 8.6 -0.025 9 0.075C11.4 1.075 13.8 2.075 16.2 2.975C17.1 3.375 17.2 4.475 16.5 4.975C16.5 4.975 16.4 5.075 16.4 5.175C16.4 5.875 16.4 6.575 16.4 7.175C16.4 7.275 16.5 7.375 16.5 7.375C16.9 7.675 17.2 8.075 17 8.575C16.9 9.075 16.5 9.375 16 9.375C15.5 9.375 15.1 9.075 15 8.575C14.9 8.075 15.1 7.575 15.5 7.375C15.6 7.375 15.6 7.275 15.6 7.275C15.6 6.575 15.6 5.975 15.6 5.275Z" fill="#666666"/>
<path d="M4 7.0752C4.4 7.1752 4.7 7.3752 5 7.4752C5.9 7.8752 6.7 8.1752 7.6 8.5752C8.1 8.7752 8.7 8.7752 9.2 8.5752C10.3 8.0752 11.5 7.6752 12.6 7.1752C12.7 7.1752 12.7 7.0752 12.8 7.0752C12.8 7.1752 12.8 7.1752 12.8 7.2752C12.8 7.9752 12.8 8.5752 12.8 9.2752C12.8 9.7752 12.6 10.1752 12.1 10.3752C11 10.8752 9.9 11.2752 8.8 11.7752C8.5 11.8752 8.1 11.8752 7.8 11.7752C6.7 11.2752 5.7 10.8752 4.6 10.3752C4.2 10.2752 4 9.8752 4 9.2752C4 8.5752 4 7.8752 4 7.0752Z" fill="#666666"/>
</svg>
