<svg width="20" height="19" viewBox="0 0 20 19" fill="none" xmlns="http://www.w3.org/2000/svg">
<path d="M10.5 0C5.275 0 1 4.275 1 9.5C1 14.725 5.275 19 10.5 19C15.725 19 20 14.725 20 9.5C20 4.275 15.725 0 10.5 0ZM14.015 9.88L8.505 13.49C8.41 13.49 8.41 13.585 8.315 13.585C8.22 13.585 8.22 13.585 8.125 13.49C8.03 13.395 7.935 13.3 7.935 13.11V5.985C7.935 5.795 8.03 5.7 8.125 5.605C8.22 5.51 8.41 5.51 8.505 5.605L14.015 9.215C14.11 9.31 14.205 9.405 14.205 9.595C14.205 9.595 14.205 9.785 14.015 9.88Z" fill="#757575"/>
</svg>
