<svg width="22" height="19" viewBox="0 0 22 19" fill="none" xmlns="http://www.w3.org/2000/svg">
    <g clip-path="url(#clip0_66_952)">
        <path
            d="M0 18.9998C0.5 17.2998 1.8 16.5998 3.5 16.2998C4.3 16.1998 5 16.0998 5.7 15.7998C7.6 14.9998 8.2 13.1998 7.3 11.2998C6.7 10.0998 6.3 8.79976 5.8 7.49976C5.6 6.99976 5.2 6.19976 6.1 5.69976C6.3 5.59976 6.3 4.99976 6.3 4.69976C6.4 1.19976 9 -0.700239 12.4 0.199761C14.3 0.699761 15.4 2.29976 15.5 4.59976C15.5 5.09976 16 5.49976 16 5.99976C16 6.89976 15.8 7.79976 15.5 8.69976C15.1 9.99976 14.3 11.1998 14.1 12.4998C13.8 14.0998 14.9 15.5998 16.5 15.9998C17.1 16.1998 17.8 16.1998 18.4 16.2998C20 16.5998 21.3 17.1998 21.7 18.9998H0Z"
            fill="#251446" />
    </g>
    <defs>
        <clipPath id="clip0_66_952">
            <rect width="21.7" height="19" fill="white" />
        </clipPath>
    </defs>
</svg>