<svg width="20" height="20" viewBox="0 0 20 20" fill="none" xmlns="http://www.w3.org/2000/svg">
<path d="M4 14.6C4 14.5 4 14.4 4 14.4H3C1.9 14.4 1 15.3 1 16.4V18.8C1 19.1 1.2 19.4 1.6 19.4H4.1C4 19.2 4 19 4 18.8V14.6Z" fill="#757575"/>
<path d="M8 12.6C8 12.5 8 12.4 8 12.3H7C5.9 12.3 5 13.2 5 14.3V18.7C5 19 5.2 19.3 5.6 19.3H8.1C8 19.2 8 19 8 18.8V12.6Z" fill="#757575"/>
<path d="M16 9.30005H15C13.9 9.30005 13 10.2 13 11.3V18.7C13 19 13.2 19.2 13.5 19.2H17.4C17.7 19.2 17.9 19 17.9 18.7V11.3C18 10.2 17.1 9.30005 16 9.30005Z" fill="#757575"/>
<path d="M12 10.9C12 10.7 12 10.5 12 10.4H11C9.9 10.4 9 11.3 9 12.4V18.8C9 19.1 9.2 19.4 9.6 19.4H12.1C12 19.1 12 19 12 18.8V10.9Z" fill="#757575"/>
<path d="M18.9 2.8C18.8 2.6 18.7 2.5 18.5 2.4L16.5 2.1L15.6 0.3C15.5 0.1 15.4 0 15.1 0C14.9 0 14.7 0.1 14.6 0.3L13.7 2.1L11.7 2.4C11.5 2.4 11.3 2.6 11.3 2.8C11.2 3 11.3 3.2 11.4 3.4L12.8 4.8L12.5 6.8C12.5 7 12.5 7.2 12.7 7.3C12.9 7.4 13.1 7.4 13.3 7.3L15.1 6.4L16.9 7.3C17 7.3 17.1 7.4 17.2 7.4C17.5 7.4 17.8 7.2 17.8 6.8V6.7L17.5 4.8L18.9 3.4C19 3.2 19 3 18.9 2.8Z" fill="#757575"/>
</svg>
