<svg width="20" height="19" viewBox="0 0 20 19" fill="none" xmlns="http://www.w3.org/2000/svg">
<g clip-path="url(#clip0_110_7)">
<path d="M10.1 14.7854C11.3 14.7854 12.3 15.7854 12.3 16.9854C12.3 18.1854 11.3 19.1854 10.1 19.1854C8.90002 19.1854 7.90002 18.1854 7.90002 16.9854C7.90002 15.7854 8.90002 14.7854 10.1 14.7854Z" fill="#757575"/>
<path d="M7.7 0.385368C5.4 1.18536 4 3.38536 4 5.68536V6.18536H9V6.08536C8.8 5.28536 9.4 4.68536 10.1 4.68536C10.8 4.68536 11.4 5.28536 11.4 5.98536C11.4 6.38536 11.2 6.78536 10.9 6.98536L8 9.68537V13.2854H12V11.3854L13.5 10.1854C14.3 9.48537 15 8.58536 15.3 7.58536C16.7 2.88536 12.4 -1.31464 7.7 0.385368Z" fill="#757575"/>
</g>
<defs>
<clipPath id="clip0_110_7">
<rect width="20" height="19" fill="white"/>
</clipPath>
</defs>
</svg>
