<svg width="20" height="20" viewBox="0 0 20 20" fill="none" xmlns="http://www.w3.org/2000/svg">
<path d="M10 0C15.5 0 20 4.5 20 10C20 15.5 15.5 20 10 20C4.5 20 0 15.5 0 10C0 4.5 4.5 0 10 0ZM5 11H13L11.1 12.9C10.8 13.2 10.8 13.8 11.1 14.1C11.3 14.3 11.5 14.3 11.7 14.3C11.9 14.3 12.1 14.2 12.3 14.1L15.6 10.8C15.7 10.7 15.7 10.6 15.8 10.5C15.9 10.3 15.9 10.1 15.8 9.9C15.8 9.8 15.7 9.7 15.6 9.6L12.3 6.3C12 6 11.4 6 11.1 6.3C10.8 6.6 10.8 7.2 11.1 7.5L13 9.3H5C4.5 9.3 4.2 9.7 4.2 10.1C4.2 10.5 4.5 11 5 11Z" fill="#494949"/>
</svg>
