<svg width="22" height="24" viewBox="0 0 22 24" fill="none" xmlns="http://www.w3.org/2000/svg">
<g clip-path="url(#clip0_58_963)">
<path d="M3.59995 1.4C3.39995 1.4 3.19995 1.4 2.89995 1.4C2.49995 1.4 2.19995 1.1 2.19995 0.7C2.19995 0.3 2.49995 0 2.89995 0C2.99995 0 3.09995 0 3.09995 0H18.9C19 0 19 0 19.1 0C19.5 0 19.7999 0.3 19.7999 0.7C19.7999 1.1 19.5 1.4 19.1 1.4C18.9 1.4 18.7 1.4 18.4 1.4V1.7C18.4 4.5 18.4 7.3 18.4 10.1C18.4 10.7 18.2 11 17.5 11C13.1 11 8.69995 11 4.29995 11C3.69995 11 3.39995 10.8 3.39995 10.1C3.39995 7.3 3.39995 4.5 3.39995 1.7V1.4H3.59995ZM7.59995 6.8C7.39995 6.8 7.19995 6.8 6.99995 6.8C6.59995 6.8 6.29995 7.1 6.29995 7.5C6.29995 7.9 6.59995 8.2 6.99995 8.2C9.69995 8.2 12.3 8.2 15 8.2C15.4 8.2 15.7 7.9 15.7 7.5C15.7 7.1 15.4 6.8 15 6.8C14.8 6.8 14.6 6.8 14.4 6.8C14.4 6.7 14.4 6.6 14.4 6.5C14.4 5.5 14.4 4.4 14.4 3.4C14.4 3.1 14.3 2.8 14 2.7C13.5 2.5 13.1 2.8 13.1 3.4C13.1 4.4 13.1 5.5 13.1 6.5V6.7H11.7C11.7 6 11.7 5.4 11.7 4.8C11.7 4.4 11.4 4.1 11 4.1C10.6 4.1 10.3 4.4 10.3 4.8C10.3 5.4 10.3 6 10.3 6.5C10.3 6.6 10.3 6.6 10.3 6.7H8.99995C8.99995 6.5 8.99995 6.3 8.99995 6C8.99995 5.6 8.69995 5.3 8.29995 5.3C7.99995 5.5 7.69995 5.7 7.59995 6.1C7.59995 6.4 7.59995 6.6 7.59995 6.8Z" fill="white"/>
<path d="M15.2001 20.9999C15.0001 19.4999 14.2001 18.2999 12.7001 17.6999C12.6001 17.6999 12.6001 17.5999 12.5001 17.5999C14.0001 16.5999 14.3001 14.5999 13.1001 13.2999C12.1001 12.0999 10.2001 11.9999 9.0001 12.9999C8.4001 13.4999 8.1001 14.1999 8.0001 14.8999C7.9001 15.9999 8.4001 16.8999 9.3001 17.5999C9.2001 17.5999 9.2001 17.5999 9.2001 17.6999C7.8001 18.2999 7.0001 19.3999 6.7001 20.8999C6.6001 21.4999 6.6001 21.9999 6.6001 22.5999C6.6001 22.9999 6.7001 23.0999 7.1001 23.0999C9.6001 23.0999 12.1001 23.0999 14.5001 23.0999C14.7001 23.0999 14.9001 22.9999 15.0001 22.7999V21.1999C15.2001 21.0999 15.2001 21.0999 15.2001 20.9999Z" fill="white"/>
<path d="M22 20.9999C21.8 19.4999 21 18.2999 19.5 17.6999C19.4 17.6999 19.4 17.5999 19.3 17.5999C20.8 16.5999 21.1 14.5999 19.9 13.2999C18.9 12.0999 17 11.9999 15.8 12.9999C15.2 13.4999 14.9 14.1999 14.8 14.8999C14.7 15.9999 15.2 16.8999 16.1 17.5999C16 17.5999 16 17.5999 16 17.6999C15.9 17.7999 15.8 17.7999 15.7 17.8999C16.3 18.6999 16.7 19.6999 16.9 20.7999V20.8999V21.0999V23.1999C18.4 23.1999 19.9 23.1999 21.4 23.1999C21.6 23.1999 21.8 23.0999 21.9 22.8999V21.2999C22 21.0999 22 21.0999 22 20.9999Z" fill="white"/>
<path d="M5 22.0999C5 21.5999 5 21.0999 5.1 20.5999C5.3 19.5999 5.7 18.5999 6.3 17.8999C6.2 17.7999 6.1 17.7999 6 17.6999C5.9 17.6999 5.9 17.5999 5.8 17.5999C7.3 16.5999 7.6 14.5999 6.4 13.2999C5.4 12.0999 3.5 11.9999 2.3 12.9999C1.7 13.4999 1.4 14.1999 1.3 14.8999C1.2 15.9999 1.7 16.8999 2.6 17.5999C2.5 17.5999 2.5 17.5999 2.5 17.6999C1.1 18.2999 0.3 19.3999 0 20.8999C0 21.3999 0 21.9999 0 22.4999C0 22.8999 0.1 22.9999 0.5 22.9999C2 22.9999 3.5 22.9999 5 22.9999C5 22.7999 5 22.6999 5 22.4999C5 22.3999 5 22.1999 5 22.0999Z" fill="white"/>
</g>
<defs>
<clipPath id="clip0_58_963">
<rect width="22" height="23.1" fill="white"/>
</clipPath>
</defs>
</svg>
