<svg width="22" height="26" viewBox="0 0 22 26" fill="none" xmlns="http://www.w3.org/2000/svg">
<g clip-path="url(#clip0_73_946)">
<path d="M11.1 0C11.5 0.1 11.8 0.2 12.2 0.3C13.9 1 15 2.8 14.8 4.6C14.6 6.6 13.1 8.1 11.2 8.4C8.90001 8.7 6.80001 7.1 6.50001 4.9C6.20001 2.5 7.70001 0.4 10.1 0H10.2H11.1Z" fill="white"/>
<path d="M2 13.9C2 13.3 2 12.7 2 12.1C2 11.6 2.5 11.3 3 11.5C4.3 12 5.7 12.5 7 13C7.9 13.3 8.8 13.7 9.6 14C9.7 14.1 9.8 14.1 9.8 14.3C9.8 17.9 9.8 21.5 9.8 25.1C9.8 25.2 9.8 25.2 9.8 25.3C9.2 25.1 8.5 24.8 7.9 24.6C6.1 23.9 4.3 23.3 2.5 22.6C2.1 22.4 2 22.2 2 21.7C2 21.3 2 20.8 2 20.4C2 20.4 2 20.4 2 20.3C2.2 20.3 2.3 20.3 2.5 20.3C3.5 20.1 4.3 19.4 4.4 18.4C4.5 17.6 4.5 16.7 4.4 15.9C4.3 14.7 3.4 14 2.2 13.9C2.1 13.9 2.1 13.9 2 13.9Z" fill="white"/>
<path d="M19.3 20.3C19.3 20.9 19.3 21.4 19.3 21.9C19.3 22.3 19.1 22.5 18.8 22.6C17.7 23 16.5 23.5 15.4 23.9C14.2 24.4 13 24.8 11.7 25.3C11.6 25.3 11.5 25.4 11.4 25.4V25.1C11.4 21.5 11.4 17.9 11.4 14.4C11.4 14.2 11.4 14.1 11.6 14.1C13.8 13.3 16 12.5 18.2 11.6C18.9 11.3 19.3 11.7 19.3 12.4C19.3 12.9 19.3 13.3 19.3 13.8C19.3 13.8 19.3 13.8 19.3 13.9C19.1 13.9 18.9 13.9 18.7 14C17.7 14.2 16.9 15.1 16.9 16.1C16.9 16.8 16.9 17.4 16.9 18.1C16.9 19.4 17.9 20.3 19.2 20.4C19.1 20.3 19.2 20.3 19.3 20.3Z" fill="white"/>
<path d="M16.4 10.6C15.5 10.9 14.7 11.2 13.9 11.6C12.9 12 11.9 12.4 10.9 12.7C10.8 12.7 10.6 12.8 10.5 12.7C8.70002 12 6.90002 11.3 5.10002 10.7C5.00002 10.7 5.00002 10.7 4.90002 10.6C5.70002 9.90001 6.50002 9.40001 7.50002 9.00001C7.60002 9.00001 7.70002 9.00001 7.70002 9.00001C9.70002 10.1 11.6 10.1 13.6 9.00001C13.7 9.00001 13.8 8.90001 13.8 9.00001C14.5 9.20001 15.9 10.1 16.4 10.6Z" fill="white"/>
<path d="M3 17.1C3 17.4 3 17.7 3 18.1C3 18.5 2.7 18.9 2.2 18.9C1.9 18.9 1.6 18.9 1.4 18.9C0.5 18.7 0 17.9 0 17.1C0.1 16.3 0.8 15.6 1.6 15.5C1.8 15.5 2 15.5 2.2 15.5C2.6 15.5 2.9 15.8 2.9 16.2C3 16.4 3 16.7 3 17.1Z" fill="white"/>
<path d="M18.3 17.1C18.3 16.8 18.3 16.5 18.3 16.1C18.3 15.7 18.6 15.3 19.1 15.3C19.4 15.3 19.7 15.3 19.9 15.3C20.8 15.5 21.3 16.3 21.3 17.1C21.2 18 20.5 18.7 19.7 18.7C19.5 18.7 19.3 18.7 19.1 18.7C18.7 18.7 18.4 18.4 18.4 18C18.3 17.7 18.3 17.4 18.3 17.1Z" fill="white"/>
</g>
<defs>
<clipPath id="clip0_73_946">
<rect width="21.3" height="25.3" fill="white"/>
</clipPath>
</defs>
</svg>
