<svg width="71" height="67" viewBox="0 0 71 67" fill="none" xmlns="http://www.w3.org/2000/svg">
<path d="M11.2 58.3L19.4001 50.1L25.9001 56.6L17.7 64.8C17.5 65 17 64.8 17.1 64.5L17.8001 61.4L18.7 57.7C18.8 57.4 18.5001 57.2 18.3001 57.3L11.6 58.9C11.2 59 10.9 58.5 11.2 58.3Z" fill="#FF4A73"/>
<path d="M53.9 64.8L45.7 56.6L52.2 50.1L60.4 58.3C60.6 58.5 60.4 59 60.1 58.9L57 58.2L53.3 57.3C53 57.2 52.8 57.5 52.9 57.7L54.5 64.4C54.6 64.8 54.2 65 53.9 64.8Z" fill="#FF4A73"/>
<path d="M53.9 64.8L45.7 56.6L48.1 54.2L53.2 59.3L54.4 64.5C54.6 64.8 54.2 65 53.9 64.8Z" fill="#F973A3"/>
<path d="M60.1 58.9L57 58.2L56.2 58L50.3 52.1L52.2 50.2L60.4 58.4C60.6 58.5 60.4 59 60.1 58.9Z" fill="#EA2A6A"/>
<path d="M21.4 52.2L15.6999 57.9L11.5 58.9C11.2 59 10.8999 58.6 11.1999 58.3L19.4 50.1L21.4 52.2Z" fill="#F973A3"/>
<path d="M25.8001 56.6L17.6 64.8C17.4 65 16.9 64.8 17 64.5L17.7 61.4L18 60.3L23.7 54.6L25.8001 56.6Z" fill="#EA2A6A"/>
<path d="M35.5 1.5C51.3 1.5 64 14.3 64 30C64 45.8 51.2 58.5 35.5 58.5C19.7 58.5 7 45.7 7 30C7 14.2 19.8 1.5 35.5 1.5Z" fill="#F9D335"/>
<path d="M35.5 7.39999C48 7.39999 58.1 17.5 58.1 30C58.1 42.5 48 52.6 35.5 52.6C23 52.6 12.9 42.5 12.9 30C13 17.5 23.1 7.39999 35.5 7.39999Z" fill="#F9D335"/>
<path d="M58.1 30C58.1 42.5 48 52.6 35.5 52.6C34.8 52.6 34.1 52.6 33.5 52.5C45 51.5 54 41.8 54 30C54 18.2 45 8.6 33.5 7.5C34.2 7.4 34.9 7.39999 35.5 7.39999C48 7.39999 58.1 17.5 58.1 30Z" fill="#F2C300"/>
<path d="M37.6 52.5C36.9 52.6 36.2 52.6 35.6 52.6C23.1 52.6 13 42.5 13 30C13 17.5 23.1 7.39999 35.6 7.39999C36.3 7.39999 37 7.4 37.6 7.5C26.1 8.5 17.1 18.2 17.1 30C17.1 41.8 26.1 51.4 37.6 52.5Z" fill="#F9E27D"/>
<path d="M64 30C64 45.8 51.2 58.5 35.5 58.5C34.8 58.5 34.1 58.5 33.5 58.4C48.3 57.4 60 45 60 29.9C60 14.8 48.3 2.49999 33.5 1.39999C34.2 1.29999 34.9 1.29999 35.5 1.29999C51.3 1.49999 64 14.2 64 30Z" fill="#F2C300"/>
<path d="M37.6 58.5C36.9 58.6 36.2 58.6 35.6 58.6C19.8 58.6 7.09998 45.8 7.09998 30.1C7.09998 14.3 19.9 1.60001 35.6 1.60001C36.3 1.60001 37 1.60001 37.6 1.70001C22.8 2.70001 11.1 15.1 11.1 30.2C11.1 45.1 22.7 57.4 37.6 58.5Z" fill="#F9E27D"/>
<path d="M67.6 36.7H3.30005C2.50005 36.7 1.90002 36.1 1.90002 35.3V24.6C1.90002 23.8 2.50005 23.2 3.30005 23.2H67.6C68.4 23.2 69 23.8 69 24.6V35.3C69 36.1 68.4 36.7 67.6 36.7Z" fill="#44C7B6"/>
<path d="M69 24.6V35.3C69 36.1 68.4 36.7 67.6 36.7H63.5C64.3 36.7 64.9 36.1 64.9 35.3V24.6C64.9 23.8 64.3 23.2 63.5 23.2H67.6C68.4 23.2 69 23.9 69 24.6Z" fill="#3BB2A0"/>
<path d="M7.40002 36.7H3.30005C2.50005 36.7 1.90002 36.1 1.90002 35.3V24.6C1.90002 23.8 2.50005 23.2 3.30005 23.2H7.40002C6.60002 23.2 6 23.8 6 24.6V35.3C6.1 36.1 6.70002 36.7 7.40002 36.7Z" fill="#4BDBC3"/>
<path d="M67.7 22.1H64.1C60.7 9.49998 49.2 0.299988 35.5 0.299988C21.9 0.299988 10.4 9.59998 6.90002 22.1H3.30005C2.00005 22.1 0.800049 23.2 0.800049 24.6V35.4C0.800049 36.7 1.90005 37.9 3.30005 37.9H6.90002C8.40002 43.5 11.6 48.5 15.8 52.2L10.4 57.6C9.40002 58.6 10.3 60.4 11.7 60L17.3 58.7L16 64.3C15.7 65.7 17.4 66.7 18.4 65.6L25.9 58.1C32.2 60.3 39.2 60.2 45.5 58L53.1 65.7C54.1 66.7 55.8 65.8 55.5 64.4L54.2 58.8L59.8 60.1C61.2 60.4 62.2 58.7 61.1 57.7L55.4 52C59.5 48.3 62.5 43.4 64 37.9H67.6C68.9 37.9 70.1 36.8 70.1 35.4V24.6C70.1 23.2 69 22.1 67.7 22.1ZM35.5 2.5C47.9 2.5 58.4 10.8 61.8 22.1H57.8C54.6 12.9 45.8 6.29999 35.5 6.29999C25.2 6.29999 16.4 12.9 13.2 22.1H9.19995C12.6 10.8 23.1 2.5 35.5 2.5ZM55.5 22.1H15.5C18.6 14.1 26.4 8.5 35.5 8.5C44.6 8.5 52.4 14.2 55.5 22.1ZM18.7 62.1L19.7 57.9C20 56.9 19 55.9 18 56.2L13.8 57.2L17.5 53.5C19.4 55 21.5 56.2 23.7 57.2L18.7 62.1ZM57.8 57.2L53.6 56.2C52.6 56 51.6 56.9 51.9 57.9L52.9 62.1L47.8 57C50 56 52 54.7 53.9 53.3L57.8 57.2ZM35.5 57.4C23.1 57.4 12.6 49.1 9.19995 37.8H13.2C16.4 47 25.2 53.6 35.5 53.6C45.8 53.6 54.6 47 57.8 37.8H61.8C58.4 49.2 47.8 57.4 35.5 57.4ZM15.5 37.8H55.5C52.4 45.8 44.6 51.4 35.5 51.4C26.4 51.5 18.7 45.8 15.5 37.8ZM67.7 35.6H3.30005C3.10005 35.6 3 35.5 3 35.3V24.6C3 24.5 3.10005 24.3 3.30005 24.3H67.7C67.8 24.3 68 24.4 68 24.6V35.3C68 35.5 67.9 35.6 67.7 35.6Z" fill="#662D91"/>
<path d="M25.2 13.1H24.5C24.4 13.1 24.3 13.1 24.2 13.2L22.9 13.9C22.7 14 22.6 14.3 22.6 14.5L22.8 15.1C22.9 15.4 23.3 15.6 23.6 15.4L23.8 15.3V19.4C23.8 19.7 24 19.9 24.3 19.9H25.1C25.4 19.9 25.6 19.7 25.6 19.4V14C25.7 13.6 25.5 13.2 25.2 13.1Z" fill="#662D91"/>
<path d="M29.1 13C27.6 13 26.6 14.4 26.6 16.5C26.6 19.1 27.9 20 29 20C30.6 20 31.5 18.7 31.5 16.4C31.5 14.3 30.6 13 29.1 13ZM29 18.4C28.7 18.4 28.4 17.8 28.4 16.6C28.4 15.4 28.7 14.8 29 14.8C29.5 14.8 29.6 15.7 29.6 16.6C29.6 17.6 29.4 18.4 29 18.4Z" fill="#662D91"/>
<path d="M34.5 13C33 13 32 14.4 32 16.5C32 19.1 33.3 20 34.4 20C36 20 36.9 18.7 36.9 16.4C36.9 14.3 36 13 34.5 13ZM34.5 18.4C34.2 18.4 33.9 17.8 33.9 16.6C33.9 15.4 34.2 14.8 34.5 14.8C35 14.8 35.1 15.7 35.1 16.6C35.1 17.6 34.8 18.4 34.5 18.4Z" fill="#662D91"/>
<path d="M45.8001 12.6L39.1 19.4C38.3 20.2 39.5001 21.3 40.3001 20.6L47 13.8C47.7 13 46.6001 11.8 45.8001 12.6Z" fill="#662D91"/>
<path d="M46 16.9C44.8 16.9 43.9 17.8 43.9 19.1C43.9 20.4 44.8 21.3 46 21.3C47 21.3 48.1 20.6 48.1 19.1C48.1 17.8 47.2 16.9 46 16.9ZM46 19.7C45.8 19.7 45.6 19.4 45.6 19C45.6 18.9 45.6 18.3 46 18.3C46.4 18.3 46.4 19 46.4 19C46.4 19.5 46.2 19.7 46 19.7Z" fill="#662D91"/>
<path d="M42.3 14C42.3 12.7 41.5 11.8 40.2 11.8C39 11.8 38.1 12.7 38.1 14C38.1 15.3 38.9 16.2 40.2 16.2C41.2 16.2 42.3 15.5 42.3 14ZM39.8 14C39.8 13.9 39.8 13.3 40.2 13.3C40.6 13.3 40.6 14 40.6 14C40.6 14.4 40.4 14.7 40.2 14.7C40 14.7 39.8 14.4 39.8 14Z" fill="#662D91"/>
<path d="M33.2 48.4C33.5 48.6 34 48.6 34.2 48.4C34.5 48.3 38.0001 44.7 40.9001 41.8C42.0001 40.7 40.3 39 39.2 40.1L33.6 45.7L31 43.2C29.9 42.1 28.2001 43.8 29.4001 44.9C29.6001 45 33 48.3 33.2 48.4Z" fill="#662D91"/>
<path d="M48.2 42.4C48.4 42.5 48.5 42.5 48.7 42.5C49.1 42.5 49.5 42.3 49.7 41.9C49.9 41.5 50.1001 41.1 50.3001 40.7C50.5001 40.1 50.3 39.5 49.7 39.3C49.1 39.1 48.5001 39.3 48.3001 39.9C48.2001 40.2 48.0001 40.6 47.8001 40.9C47.4001 41.4 47.6 42.1 48.2 42.4Z" fill="#662D91"/>
<path d="M39.7 47.2C39.7 47.8 40.2 48.2 40.8 48.2C40.8 48.2 40.8 48.2 40.9 48.2C41 48.2 44.1 48 46.9 45.4C47.3 45 47.4 44.3 47 43.9C46.6 43.5 45.9 43.4 45.5 43.8C43.3 45.8 40.8 46 40.8 46C40.1 46.1 39.7 46.6 39.7 47.2Z" fill="#662D91"/>
<path d="M11.4 26.6H10.4C10.2 26.6 10.1 26.7 10 26.9C8.9 29.9 8.89995 29.9 8.69995 30.6C8.49995 29.9 8.50002 29.9 7.40002 26.9C7.30002 26.7 7.2 26.6 7 26.6H6C5.8 26.6 5.59998 26.8 5.59998 27L5.19995 33C5.19995 33.2 5.39998 33.4 5.59998 33.4H6.30005C6.30005 33.4 6.69995 33.3 6.69995 33.1C6.89995 30.3 6.90002 30.5 6.90002 30.2C6.90002 30.3 7.90002 33.1 7.90002 33.2C8.00002 33.4 8.10005 33.5 8.30005 33.6H8.90002C9.10002 33.5 9.20005 33.4 9.30005 33.2C9.30005 33.2 10.4 30.1 10.4 30C10.4 30.5 10.4 29.9 10.6 33.1C10.6 33.3 11 33.4 11 33.4H11.7C11.9 33.4 12.1 33.2 12.1 33L11.7 27C11.8 26.7 11.6 26.6 11.4 26.6Z" fill="#662D91"/>
<path d="M16.6 26.4C14.7 26.4 13.4 27.9 13.4 30C13.4 32.1 14.7 33.5 16.5 33.5C18.1 33.5 19.7 32.4 19.7 29.9C19.7 27.9 18.4 26.4 16.6 26.4ZM16.5 32.1C15.4 32.1 15 31 15 30C15 29 15.4 27.9 16.5 27.9C17.6 27.9 18 29 18 30C18.1 31 17.6 32.1 16.5 32.1Z" fill="#662D91"/>
<path d="M26 26.6H25.3C25.1 26.6 24.9 26.8 24.9 27C24.9 29.8 24.9 29.9 24.9 30.3C24.7 30 24.8 30.1 22.7 26.8C22.6 26.7 22.5 26.6 22.4 26.6H21.5C21.3 26.6 21.1 26.8 21.1 27V33.1C21.1 33.3 21.3 33.5 21.5 33.5H22.2C22.4 33.5 22.6 33.3 22.6 33.1C22.6 30.3 22.6 30.1 22.6 29.6C22.8 29.9 22.8 29.9 24.9 33.3C25 33.4 25.1 33.5 25.2 33.5H26C26.2 33.5 26.4 33.3 26.4 33.1V27C26.4 26.7 26.2 26.6 26 26.6Z" fill="#662D91"/>
<path d="M31.7 32H29.6V30.7H31.5C31.7 30.7 31.9 30.5 31.9 30.3V29.6C31.9 29.4 31.7 29.2 31.5 29.2H29.6V28H31.6C31.8 28 32 27.8 32 27.6V27C32 26.8 31.8 26.6 31.6 26.6H28.3C28.1 26.6 27.9 26.8 27.9 27V33C27.9 33.2 28.1 33.4 28.3 33.4H31.7C31.9 33.4 32.1 33.2 32.1 33V32.4C32.1 32.1 32 32 31.7 32Z" fill="#662D91"/>
<path d="M38.4 26.6H37.5C37.3 26.6 37.2 26.7 37.1 26.8C36.3 28.3 36.2 28.5 35.9 29C35.7 28.7 35.7001 28.6 34.8001 26.8C34.7001 26.7 34.6 26.6 34.4 26.6H33.5C33.2 26.6 33 26.9 33.1 27.2L35 30.6V33.1C35 33.3 35.2 33.5 35.4 33.5H36.2C36.4 33.5 36.6 33.3 36.6 33.1V30.6L38.6 27.2C39 26.9 38.8 26.6 38.4 26.6Z" fill="#662D91"/>
<path d="M46.6 29.7C47 29.4 47.2 28.9 47.2 28.4C47.2 27.8 47 27.3 46.5 27C46 26.6 45.4 26.5 44.6 26.5C44.1 26.5 43.5 26.6 43.1 26.6C42.9 26.6 42.8 26.8 42.8 27V33C42.8 33.2 43 33.4 43.2 33.4C43.4 33.4 43.8 33.5 44.5 33.5C45.6 33.5 46.4 33.3 46.9 32.8C47.3 32.4 47.5 31.9 47.5 31.3C47.4 30.6 47 30 46.6 29.7ZM44.3 27.9C44.4 27.9 44.5 27.9 44.6 27.9C45.5 27.9 45.5 28.3 45.5 28.5C45.5 29 45 29.1 44.6 29.1H44.3V27.9ZM44.5 32.1C44.4 32.1 44.3 32.1 44.2 32.1V30.6H44.4C44.9 30.6 45.6 30.7 45.6 31.4C45.7 31.8 45.3 32.1 44.5 32.1Z" fill="#662D91"/>
<path d="M52.1 26.8C52 26.6 51.9 26.5 51.7 26.5H50.8001C50.6001 26.5 50.5 26.6 50.4 26.8L48.3001 32.9C48.2001 33.2 48.4 33.4 48.7 33.4H49.5C49.7 33.4 49.8 33.3 49.9 33.1L50.5 31.4H52L52.6 33.1C52.7 33.3 52.8 33.4 53 33.4H53.8001C54.1001 33.4 54.3 33.1 54.2 32.9L52.1 26.8ZM50.9 30.1L51.2 29.1L51.5 30.1H50.9Z" fill="#662D91"/>
<path d="M58.5 27.9C59 27.9 59.4 28 59.6 28.1C59.8 28.2 60.1 28.1 60.2 27.8L60.4 27.2C60.5 27 60.4 26.8 60.2 26.7C60 26.6 59.5 26.4 58.6 26.4C56.5 26.4 55 27.9 55 30C55 32.1 56.3 33.5 58.4 33.5C59.1 33.5 60.6 33.4 60.4 32.7L60.2 32.1C60.1 31.8 59.9 31.7 59.6 31.8C58.9 32.1 56.6 32.4 56.6 30C56.5 28.7 57.2 27.9 58.5 27.9Z" fill="#662D91"/>
<path d="M64.4 29.6L66.4 27.2C66.6 26.9 66.4 26.5 66.1 26.5H65.2C65.1 26.5 65 26.6 64.9 26.6L63.2 28.6V27C63.2 26.8 63 26.6 62.8 26.6H62C61.8 26.6 61.6 26.8 61.6 27V33.1C61.6 33.3 61.8 33.5 62 33.5H62.8C63 33.5 63.2 33.3 63.2 33.1V30.9L63.3 30.8L65 33.4C65.1 33.5 65.2 33.6 65.3 33.6H66.2C66.5 33.6 66.7 33.2 66.5 33L64.4 29.6Z" fill="#662D91"/>
</svg>
