<svg width="22" height="22" viewBox="0 0 22 22" fill="none" xmlns="http://www.w3.org/2000/svg">
<g clip-path="url(#clip0_58_953)">
<path d="M10.3 3.50005C9.00005 3.50005 7.80005 3.40005 6.80005 4.40005C6.20005 5.00005 5.90005 5.60005 5.80005 6.40005C5.80005 6.50005 5.80005 6.60005 5.80005 6.60005C5.80005 6.90005 5.60005 7.10005 5.30005 7.10005C5.00005 7.10005 4.80005 6.90005 4.80005 6.70005C4.80005 5.90005 5.00005 5.20005 5.40005 4.50005C6.20005 3.20005 7.40005 2.60005 8.90005 2.50005C9.30005 2.50005 9.70005 2.50005 10.2 2.50005C10 2.30005 9.80005 2.10005 9.60005 1.90005C9.40005 1.70005 9.40005 1.40005 9.60005 1.20005C9.80005 1.00005 10 1.00005 10.2 1.20005C10.7 1.70005 11.2 2.20005 11.7 2.70005C11.9 2.90005 11.9 3.20005 11.7 3.40005C11.2 3.90005 10.7 4.40005 10.2 4.90005C10 5.10005 9.70005 5.10005 9.50005 4.90005C9.30005 4.70005 9.30005 4.40005 9.50005 4.20005C9.80005 4.00005 10 3.80005 10.3 3.50005Z" fill="white"/>
<path d="M13.1 18.2C13.9 18.2 14.8 18.3 15.6 17.9C16.8 17.3 17.4 16.4 17.5 15.1C17.5 14.7 17.8 14.5 18.1 14.5C18.3 14.6 18.5 14.8 18.5 15.1C18.5 16.8 17.4 18.3 15.7 18.9C15.2 19.1 14.6 19.1 14.1 19.1C13.8 19.1 13.5 19.1 13.1 19.1C13.1 19.1 13.1 19.1 13.1 19.2C13.3 19.4 13.5 19.6 13.7 19.8C13.9 20 13.9 20.4 13.7 20.5C13.5 20.6 13.3 20.6 13.1 20.5C12.6 20 12.1 19.5 11.6 19C11.4 18.8 11.4 18.5 11.6 18.3C12.1 17.8 12.6 17.3 13.1 16.8C13.3 16.6 13.6 16.6 13.8 16.8C14 17 14 17.2 13.8 17.5C13.7 17.6 13.6 17.7 13.5 17.8C13.3 17.9 13.2 18 13.1 18.2C13.1 18.2 13.1 18.1 13.1 18.2Z" fill="white"/>
<path d="M10.6 19.8C10.5 17.6 9.5 15.9 7.5 14.9C7.4 14.9 7.4 14.8 7.3 14.8C9.3 13.5 9.5 10.9 8.1 9.30003C6.7 7.80003 4.3 7.70003 2.8 9.10003C1.1 10.7 1.4 13.5 3.4 14.8C3.3 14.8 3.3 14.9 3.2 14.9C1.5 15.7 0.5 17 0.2 18.9C0 19.7 0 20.4 0 21.2C0 21.6 0.1 21.7 0.5 21.7C3.7 21.7 6.9 21.7 10 21.7C10.4 21.7 10.6 21.5 10.6 21.1C10.6 20.7 10.6 20.2 10.6 19.8Z" fill="white"/>
<path d="M22 10.9999C21.7 9.0999 20.7 7.5999 18.9 6.7999C18.8 6.7999 18.8 6.6999 18.7 6.6999C20.6 5.3999 20.9 2.8999 19.5 1.1999C18.2 -0.300096 15.8 -0.500096 14.3 0.899904C13.6 1.4999 13.1 2.2999 13.1 3.2999C13 4.6999 13.6 5.8999 14.8 6.6999C14.7 6.6999 14.7 6.7999 14.7 6.7999C13 7.5999 11.9 8.8999 11.6 10.7999C11.5 11.4999 11.5 12.1999 11.5 12.8999C11.5 13.3999 11.7 13.4999 12.1 13.4999C15.2 13.4999 18.3 13.4999 21.5 13.4999C21.8 13.4999 22 13.3999 22.2 13.1999V11.1999C22 11.1999 22 11.0999 22 10.9999Z" fill="white"/>
</g>
<defs>
<clipPath id="clip0_58_953">
<rect width="22" height="21.7" fill="white"/>
</clipPath>
</defs>
</svg>
