<svg width="40" height="40" viewBox="0 0 40 40" fill="none" xmlns="http://www.w3.org/2000/svg">
    <path d="M40 20C40 31 31 40 20 40C9 40 0 31 0 20C0 9 9 0 20 0C31 0 40 9 40 20Z" fill="#F2F2F2" />
    <path
        d="M29.2 23C29.1 22.7 28.9 22.3999 28.6 22.3999C28.2 22.2999 27.7 22.6 27.6 23C27.6 23.1 27.6 23.2 27.6 23.3C27.6 24.4 27.6 25.5999 27.6 26.6999V27C27.5 26.9 27.5 26.9 27.4 26.8C25.5 24.9 23.5 22.9 21.6 21C21.4 20.8 21.1001 20.5999 20.8001 20.6999C20.2001 20.7999 19.9001 21.5 20.3001 22C20.4001 22.1 20.4 22.1999 20.5 22.1999C22.4 24.0999 24.3001 26 26.3001 28C26.3001 28 26.4 28.0999 26.5 28.1999C26.4 28.1999 26.3001 28.1999 26.3001 28.1999C25.2001 28.1999 24 28.1999 22.9 28.1999C22.6 28.1999 22.4 28.1999 22.2 28.3999C21.8 28.7999 21.9 29.5 22.4 29.8C22.5 29.8 22.5 29.8999 22.6 29.8999H28.8001C29.1001 29.7999 29.4 29.5999 29.5 29.1999V23H29.2Z"
        fill="#808080" />
    <path
        d="M12 11.5H12.3C13.4 11.5 14.6 11.5 15.7 11.5C16 11.5 16.2 11.5 16.4 11.2C16.6 11 16.7 10.7 16.6 10.3C16.5 10 16.2 9.80005 15.9 9.80005C15.8 9.80005 15.8 9.80005 15.7 9.80005C13.8 9.80005 12 9.80005 10.1 9.80005C9.49998 9.80005 9.19995 10.1 9.19995 10.8C9.19995 12.7 9.19995 14.5999 9.19995 16.3999C9.19995 16.8999 9.40005 17.2 9.80005 17.3C10.3 17.4 10.7 17.1001 10.8 16.6001C10.8 16.5001 10.8 16.4 10.8 16.3C10.8 15.2 10.8 13.9999 10.8 12.8999V12.6001C10.9 12.7001 10.9 12.7 11 12.8C12.9 14.7 14.9 16.7001 16.8 18.6001C17 18.8001 17.3 18.9999 17.6 18.8999C18.2 18.7999 18.5 18.1001 18.1 17.6001C18 17.5001 18 17.3999 17.9 17.3999C16 15.4999 14.1 13.6001 12.1 11.6001C12.2 11.6001 12.1 11.6 12 11.5Z"
        fill="#808080" />
</svg>